<svg width="700" height="700" viewBox="0 0 700 700" fill="none" xmlns="http://www.w3.org/2000/svg">
<style>
.glyph { fill: #000; }
.dot { fill: #00BFFF; }
@media (prefers-color-scheme: dark) {
  .glyph { fill: #faf7f4; }
}
</style>
<path class="dot" d="M681 639.5C681 660.211 664.211 677 643.5 677C622.789 677 606 660.211 606 639.5C606 618.789 622.789 602 643.5 602C664.211 602 681 618.789 681 639.5Z"/>
<path class="dot" d="M680 639.5C680 619.342 663.658 603 643.5 603C623.342 603 607 619.342 607 639.5C607 659.658 623.342 676 643.5 676V677L642.532 676.987C622.59 676.482 606.518 660.41 606.013 640.468L606 639.5C606 618.789 622.789 602 643.5 602L644.468 602.013C664.731 602.526 681 619.113 681 639.5L680.987 640.468C680.474 660.731 663.887 677 643.5 677V676C663.658 676 680 659.658 680 639.5Z"/>
<path class="glyph" d="M97.7547 653.318V36.6818H17V22H506.117L517.129 177.994H502.446C502.446 72.4688 432.703 36.6818 335.431 36.6818H191.357V332.153H260.182C355.619 332.153 364.796 274.344 364.796 214.699H379.479V458.784H364.796C364.796 389.045 355.619 346.835 259.264 346.835H191.357V653.318H317.077C465.739 653.318 537.317 635.883 537.317 479.889H552V668H17V653.318H97.7547Z"/>
</svg>
