<svg width="700" height="700" viewBox="0 0 700 700" fill="none" xmlns="http://www.w3.org/2000/svg">
<style>
.glyph { fill: #000; }
.dot { fill: #00BFFF; }
@media (prefers-color-scheme: dark) {
  .glyph { fill: #faf7f4; }
}
</style>
<path class="dot" d="M626 586.427C626 603.312 612.295 617 595.39 617C578.485 617 564.78 603.312 564.78 586.427C564.78 569.543 578.485 555.855 595.39 555.855C612.295 555.855 626 569.543 626 586.427Z" fill="#00BFFF"/>
<path class="dot" d="M625.184 586.427C625.184 569.993 611.845 556.67 595.39 556.67C578.935 556.67 565.596 569.993 565.596 586.427C565.596 602.862 578.935 616.185 595.39 616.185V617L594.6 616.99C578.322 616.578 565.203 603.474 564.79 587.216L564.78 586.427C564.78 569.543 578.485 555.855 595.39 555.855L596.18 555.865C612.72 556.284 626 569.807 626 586.427L625.99 587.216C625.571 603.737 612.031 617 595.39 617V616.185C611.845 616.185 625.184 602.862 625.184 586.427Z" fill="#00BFFF"/>
<path class="glyph" d="M149.917 597.693V94.9696H84V83H483.249L492.238 210.177H480.253C480.253 124.146 423.324 94.9696 343.924 94.9696H226.321V335.858H282.501C360.403 335.858 367.894 288.728 367.894 240.101H379.879V439.096H367.894C367.894 382.24 360.403 347.827 281.752 347.827H226.321V597.693H328.943C450.29 597.693 508.717 583.479 508.717 456.302H520.702V609.663H84V597.693H149.917Z" fill="black"/>
</svg>
